HIERARCHY
ROOT Hips
{
	OFFSET 0.000000 0.000000 0.000000
	CHANNELS 6 Xposition Yposition Zposition Xrotation Yrotation Zrotation
	JOINT Spine
	{
		OFFSET 0.000000 0.044490 0.066735
		CHANNELS 3 Xrotation Yrotation Zrotation
		JOINT Spine1
		{
			OFFSET 0.000000 0.015451 0.087628
			CHANNELS 3 Xrotation Yrotation Zrotation
			JOINT Spine2
			{
				OFFSET 0.000000 0.007755 0.088641
				CHANNELS 3 Xrotation Yrotation Zrotation
				JOINT Spine3
				{
					OFFSET 0.000000 0.000000 0.088980
					CHANNELS 3 Xrotation Yrotation Zrotation
					JOINT Neck
					{
						OFFSET 0.000000 -0.033367 0.233572
						CHANNELS 3 Xrotation Yrotation Zrotation
						JOINT Head
						{
							OFFSET 0.000000 -0.021245 0.120488
							CHANNELS 3 Xrotation Yrotation Zrotation
							End Site
							{
								OFFSET 0.000000 0.000000 0.000000
							}
						}
					}
					JOINT RightShoulder
					{
						OFFSET -0.026917 -0.044862 0.145355
						CHANNELS 3 Xrotation Yrotation Zrotation
						JOINT RightArm
						{
							OFFSET -0.133690 0.000000 0.000000
							CHANNELS 3 Xrotation Yrotation Zrotation
							JOINT RightForeArm
							{
								OFFSET -0.257725 0.000000 0.000000
								CHANNELS 3 Xrotation Yrotation Zrotation
								JOINT RightHand
								{
									OFFSET -0.216749 0.000000 0.000000
									CHANNELS 3 Xrotation Yrotation Zrotation
									JOINT RightHandEnd
									{
										OFFSET -0.062518 0.000000 0.000000
										CHANNELS 3 Xrotation Yrotation Zrotation
										End Site
										{
											OFFSET 0.000000 0.000000 0.000000
										}
									}
									JOINT RightHandThumb1
									{
										OFFSET -0.025007 -0.041679 -0.016672
										CHANNELS 3 Xrotation Yrotation Zrotation
										End Site
										{
											OFFSET 0.000000 0.000000 0.000000
										}
									}
								}
							}
						}
					}
					JOINT LeftShoulder
					{
						OFFSET 0.026917 -0.044862 0.145355
						CHANNELS 3 Xrotation Yrotation Zrotation
						JOINT LeftArm
						{
							OFFSET 0.133690 0.000000 0.000000
							CHANNELS 3 Xrotation Yrotation Zrotation
							JOINT LeftForeArm
							{
								OFFSET 0.257725 0.000000 0.000000
								CHANNELS 3 Xrotation Yrotation Zrotation
								JOINT LeftHand
								{
									OFFSET 0.216749 0.000000 0.000000
									CHANNELS 3 Xrotation Yrotation Zrotation
									JOINT LeftHandEnd
									{
										OFFSET 0.062518 0.000000 0.000000
										CHANNELS 3 Xrotation Yrotation Zrotation
										End Site
										{
											OFFSET 0.000000 0.000000 0.000000
										}
									}
									JOINT LeftHandThumb1
									{
										OFFSET 0.025007 -0.041679 -0.016672
										CHANNELS 3 Xrotation Yrotation Zrotation
										End Site
										{
											OFFSET 0.000000 0.000000 0.000000
										}
									}
								}
							}
						}
					}
				}
			}
		}
	}
	JOINT RightUpLeg
	{
		OFFSET -0.079855 0.000000 -0.023329
		CHANNELS 3 Xrotation Yrotation Zrotation
		JOINT RightLeg
		{
			OFFSET 0.000000 0.000000 -0.366572
			CHANNELS 3 Xrotation Yrotation Zrotation
			JOINT RightFoot
			{
				OFFSET 0.000000 0.000000 -0.363650
				CHANNELS 3 Xrotation Yrotation Zrotation
				JOINT RightToeBase
				{
					OFFSET 0.000000 -0.114715 -0.041753
					CHANNELS 3 Xrotation Yrotation Zrotation
					End Site
					{
						OFFSET 0.000000 0.000000 0.000000
					}
				}
			}
		}
	}
	JOINT LeftUpLeg
	{
		OFFSET 0.079855 0.000000 -0.023329
		CHANNELS 3 Xrotation Yrotation Zrotation
		JOINT LeftLeg
		{
			OFFSET 0.000000 0.000000 -0.366572
			CHANNELS 3 Xrotation Yrotation Zrotation
			JOINT LeftFoot
			{
				OFFSET 0.000000 0.000000 -0.363650
				CHANNELS 3 Xrotation Yrotation Zrotation
				JOINT LeftToeBase
				{
					OFFSET 0.000000 -0.114715 -0.041753
					CHANNELS 3 Xrotation Yrotation Zrotation
					End Site
					{
						OFFSET 0.000000 0.000000 0.000000
					}
				}
			}
		}
	}
}
MOTION
Frames: 4
Frame Time: 0.033333
0.147422 -0.285760 0.808426 1.884900 -1.320200 -86.292100 -0.512800 -0.500700 0.081200 -0.650000 -0.675900 -0.074400 1.913800 -0.031200 -1.115800 0.436700 0.234800 -0.228400 -7.467900 1.475600 -1.977300 -9.110900 0.342700 -3.552800 -1.139300 9.061900 4.318900 -14.149700 -8.204300 -6.557000 0.000000 0.000000 1.456100 1.729600 24.245000 -11.015600 0.000000 0.000000 0.000000 0.000000 0.000000 0.000000 -2.212000 -10.446000 -4.322600 -8.007500 18.194100 22.365300 0.000000 0.000000 -12.061100 -4.753800 -5.653600 4.157400 0.000000 0.000000 0.000000 0.000000 0.000000 0.000000 3.232100 0.265700 -7.515300 -3.556000 0.000000 0.000000 -3.950900 -5.417200 -15.668500 0.812200 0.000000 0.000000 -1.936600 -6.013700 28.430400 2.151400 0.000000 0.000000 -0.490200 3.148200 1.263900 1.456900 0.000000 0.000000 
0.147343 -0.286255 0.808434 1.864300 -1.330900 -86.400800 -0.539400 -0.505200 0.078700 -0.674400 -0.683700 -0.076400 1.945500 -0.035100 -1.108000 0.441600 0.233500 -0.224800 -7.569800 1.390400 -1.933600 -8.985500 0.399400 -3.459400 -1.216800 9.029200 4.368500 -14.072700 -8.220300 -6.593300 0.000000 0.000000 1.525900 1.940200 24.516900 -11.219500 0.000000 0.000000 0.000000 0.000000 0.000000 0.000000 -2.269800 -10.444400 -4.348200 -8.025000 18.235800 22.409400 0.000000 0.000000 -12.100100 -4.715100 -5.764400 4.137100 0.000000 0.000000 0.000000 0.000000 0.000000 0.000000 3.216700 0.326400 -7.511700 -3.553300 0.000000 0.000000 -3.928900 -5.421700 -15.572500 0.825000 0.000000 0.000000 -1.905400 -5.949700 28.459100 2.131000 0.000000 0.000000 -0.526400 3.104300 1.341400 1.564800 0.000000 0.000000 
0.147175 -0.287038 0.808436 1.836500 -1.335700 -86.577000 -0.575300 -0.509300 0.075800 -0.711700 -0.693800 -0.079200 2.002100 -0.055900 -1.086800 0.450100 0.221300 -0.212700 -7.720300 1.318600 -1.832300 -8.783100 0.459500 -3.334100 -1.308800 8.984300 4.394900 -14.038200 -8.203600 -6.624200 0.000000 0.000000 1.589400 1.977600 24.705100 -11.280700 0.000000 0.000000 0.000000 0.000000 0.000000 0.000000 -2.340300 -10.427600 -4.382600 -8.057600 18.280900 22.473500 0.000000 0.000000 -12.155300 -4.686900 -5.906000 4.075300 0.000000 0.000000 0.000000 0.000000 0.000000 0.000000 3.202100 0.417500 -7.513500 -3.538300 0.000000 0.000000 -3.905100 -5.442200 -15.408100 0.877200 0.000000 0.000000 -1.826800 -5.848400 28.493800 2.068700 0.000000 0.000000 -0.573700 3.032300 1.484900 1.497400 0.000000 0.000000 
0.146924 -0.287823 0.808429 1.806900 -1.330000 -86.760900 -0.610200 -0.505500 0.073200 -0.752300 -0.698900 -0.081400 2.069600 -0.089500 -1.055300 0.458700 0.201000 -0.191000 -7.869800 1.321800 -1.704900 -8.531500 0.442300 -3.235400 -1.382000 8.947100 4.387900 -14.075700 -8.165300 -6.676000 0.000000 0.000000 1.629000 1.889200 24.799300 -11.209500 0.000000 0.000000 0.000000 0.000000 0.000000 0.000000 -2.430900 -10.414800 -4.430300 -8.113400 18.296500 22.572000 0.000000 0.000000 -12.204200 -4.663100 -5.957600 4.019100 0.000000 0.000000 0.000000 0.000000 0.000000 0.000000 3.199400 0.511500 -7.508500 -3.516800 0.000000 0.000000 -3.894000 -5.484600 -15.247500 0.941500 0.000000 0.000000 -1.714800 -5.737700 28.519300 1.970600 0.000000 0.000000 -0.613100 2.973700 1.655900 1.348400 0.000000 0.000000 
